<svg height="48" viewBox="0 0 12.7 12.7" width="48" xmlns="http://www.w3.org/2000/svg" xmlns:xlink="http://www.w3.org/1999/xlink"><linearGradient id="a"><stop offset="0" stop-color="#9bb2de" stop-opacity=".444"/><stop offset="1" stop-color="#9bbcde" stop-opacity="0"/></linearGradient><radialGradient id="f" cx="16.933" cy="-3.175" gradientUnits="userSpaceOnUse" r="2.984" spreadMethod="pad"><stop offset="0" stop-color="#a798ff"/><stop offset="1" stop-color="#803bfc"/></radialGradient><radialGradient id="g" cx="-2.089" cy="64.33" gradientTransform="matrix(-.32768 .0447 -.02943 -.2157 18.165 12.745)" gradientUnits="userSpaceOnUse" r="4.001" xlink:href="#a"/><radialGradient id="b" cx="-2.2" cy="64.283" gradientTransform="matrix(-.63083 .06241 -.03115 -.31486 -13.416 1.239)" gradientUnits="userSpaceOnUse" r="4.001" xlink:href="#a"><stop offset="0" stop-color="#afc8e5" stop-opacity=".522"/><stop offset="1" stop-color="#9bbcde" stop-opacity="0"/></radialGradient><linearGradient id="d" gradientUnits="userSpaceOnUse" x1="11.954" x2="21.913" y1="-3.175" y2="-3.175"><stop offset="0" stop-color="#2c2c2c"/><stop offset=".25" stop-color="#535353"/><stop offset=".5" stop-color="#6b6b6b"/><stop offset=".75" stop-color="#535353"/><stop offset="1" stop-color="#2c2c2c"/></linearGradient><radialGradient id="i" cx="17.198" cy="26.27" gradientTransform="matrix(3.01374 0 0 4.52062 -34.633 -106.584)" gradientUnits="userSpaceOnUse" r="2.283"><stop offset="0" stop-color="#ffd767"/><stop offset=".538" stop-color="#e0b832"/><stop offset=".769" stop-color="#6e6c6a"/><stop offset="1" stop-color="#444"/></radialGradient><radialGradient id="j" cx="17.198" cy="26.27" gradientTransform="matrix(-3.01374 0 0 4.52062 68.364 -106.584)" gradientUnits="userSpaceOnUse" r="2.283"><stop offset="0" stop-color="#ffc108"/><stop offset=".538" stop-color="#a7872a"/><stop offset=".769" stop-color="#6e6c6a"/><stop offset="1" stop-color="#444"/></radialGradient><linearGradient id="e" gradientUnits="userSpaceOnUse" x1="12.985" x2="20.882" y1="-3.175" y2="-3.175"><stop offset="0" stop-color="#373737"/><stop offset=".26" stop-color="#6a6a6a"/><stop offset="1" stop-color="#373737"/></linearGradient><radialGradient id="h" cx="-2.2" cy="64.283" gradientTransform="matrix(-.63083 .06241 -.03115 -.31486 -16.835 17.825)" gradientUnits="userSpaceOnUse" r="4.001" xlink:href="#b"/><linearGradient id="c" gradientUnits="userSpaceOnUse" x1="17.173" x2="17.219" y1="-14.313" y2="14.699"><stop offset="0" stop-color="#728de5"/><stop offset="1" stop-color="#bd98eb"/></linearGradient><g transform="matrix(.33333 0 0 .33333 .706 6.349)"><rect fill="url(#c)" height="29.087" rx="6.449" width="29.087" x="2.39" y="-14.543"/><path d="M16.104 6.355c-1.816 2.64-2.875 5.287-3.404 8.197h8.467c-.53-2.91-1.588-5.556-3.44-8.202z" fill="#ffc012" fill-opacity=".737"/><path d="M16.415 6.355c-1.135 2.64-1.797 5.287-2.127 8.197h5.291c-.33-2.91-.992-5.556-2.15-8.202z" fill="#ffd768" fill-opacity=".717"/><path d="M16.933 14.552s-1.086-1.787-1.086-4.647c0-1.858.745-3.555.745-3.555h.683s.745 1.697.745 3.555c0 2.86-1.086 4.647-1.086 4.647z" fill="#fff3d2" fill-opacity=".733"/><path d="M16.933-12.734s-4.98 4.15-4.98 10.79c0 4.315 2.74 7.054 4.15 8.3a12.02 12.02 0 001.66 0c1.411-1.246 4.15-3.985 4.15-8.3 0-6.64-4.98-10.79-4.98-10.79z" fill="url(#d)" stroke="#333" stroke-opacity=".549" stroke-width=".265"/><circle cx="16.933" cy="-3.175" fill="url(#e)" r="3.623" stroke="#343434" stroke-opacity=".549" stroke-width=".143"/><circle cx="16.933" cy="-3.175" fill="url(#f)" r="2.807" stroke="#0d0e12" stroke-linecap="round" stroke-linejoin="round" stroke-width=".355"/><circle cx="17.215" cy=".694" fill="url(#g)" r="2.245" transform="rotate(-12.929)"/><circle cx="-17.219" cy="-.578" fill="url(#h)" r="2.359" transform="rotate(167.457)"/><path d="M16.852-4.222l-.103-.805c-.585.072-1.091.315-1.448.887l.683.416a1.11 1.11 0 01.868-.499zm-1.058 1.011c.02-.125.05-.254.098-.387l-.677-.383a1.298 1.298 0 00-.21.651z" fill="#bcadff" fill-opacity=".367"/><path d="M7.673-10.848l.265 2.117 1.587.264-1.587.265-.265 2.117-.265-2.117-1.587-.265 1.587-.264zM28.178 4.763l.133 1.322 1.058.133-1.058.132-.133 1.323-.132-1.323-1.058-.132 1.058-.133zM25.003-5.82l.133 1.322 1.058.132-1.058.133-.133 1.323-.132-1.323-1.058-.133 1.058-.132zM9.128 0l.133 1.323 1.058.132-1.058.133-.133 1.322-.132-1.322-1.058-.133 1.058-.132z" fill="#fff"/><g stroke-opacity=".549"><path d="M19.61 3.422c-.03 3.722 1.821 9.278 3.674 9.278 1.852 0 .529-6.085-1.323-8.202-1.607-1.836-.929-2.646-1.857-2.646-.265 0-.484.511-.493 1.57z" fill="url(#i)" stroke="#333" stroke-width=".265"/><path d="M14.12 3.422c.032 3.722-1.82 9.278-3.672 9.278s-.529-6.085 1.323-8.202c1.606-1.836.928-2.646 1.857-2.646.264 0 .484.511.493 1.57z" fill="url(#j)" stroke="#333" stroke-width=".265"/><path d="M14.288-9.525c1.852.794 3.44.794 5.291 0" fill="none" stroke="#343434" stroke-width=".132"/><path d="M16.933-9.525h0M18.256-9.79h0M15.61-9.79h0" fill="none" stroke="#343434" stroke-linecap="round" stroke-width=".397"/></g></g></svg>