<svg height="24" viewBox="0 0 6.35 6.35" width="24" xmlns="http://www.w3.org/2000/svg"><linearGradient id="a" gradientUnits="userSpaceOnUse" x1="3.215" x2="3.223" y1=".789" y2="5.624"><stop offset="0" stop-color="#728de5"/><stop offset="1" stop-color="#bd98eb"/></linearGradient><rect fill="url(#a)" height="4.848" rx="1.075" width="4.848" x=".751" y=".75"/><path d="M3.037 4.234c-.303.44-.48.88-.568 1.366h1.412a3.363 3.363 0 00-.574-1.367z" fill="#ffc012" fill-opacity=".737"/><path d="M3.175 5.6s-.181-.298-.181-.775c0-.31.124-.592.124-.592h.114s.124.282.124.592c0 .477-.181.775-.181.775z" fill="#fff3d2" fill-opacity=".733"/><path d="M3.175 1.052s-.83.692-.83 1.798c0 .283.072.524.172.727-.025.07-.059.182-.203.347-.308.353-.53 1.367-.22 1.367.289 0 .573-.806.606-1.418.119.158.245.28.337.36.095.007.184.007.276 0a2.46 2.46 0 00.316-.33c.04.607.32 1.388.604 1.388.31 0 .09-1.014-.22-1.367A.89.89 0 013.82 3.6a1.62 1.62 0 00.185-.75c0-1.106-.83-1.798-.83-1.798z" fill="#3c3c3c"/><circle cx="3.175" cy="2.645" fill="#8b61ff" r=".468"/><path d="M1.632 1.366l.308.397-.308.397-.309-.397zM5.05 3.968l.198.243-.199.242-.198-.242zm-.53-1.764l.198.243-.198.242-.198-.242zm-2.646.97l.199.243-.199.242-.198-.242z" fill="#fff"/></svg>