<svg height="128" viewBox="0 0 33.867 33.867" width="128" xmlns="http://www.w3.org/2000/svg" xmlns:xlink="http://www.w3.org/1999/xlink"><linearGradient id="i" gradientTransform="matrix(.10867 0 0 .16755 -37.59 11.45)" gradientUnits="userSpaceOnUse" x1="365" x2="395" y1="115" y2="115"><stop offset="0" stop-color="#a38d90"/><stop offset=".5" stop-color="#d2c4bf"/><stop offset="1" stop-color="#a38d90"/></linearGradient><radialGradient id="h" cx="-2.2" cy="64.283" gradientTransform="matrix(-.68859 .0681 -.034 -.3436 1.18 -.39)" gradientUnits="userSpaceOnUse" r="4.001"><stop offset="0" stop-color="#afc8e5" stop-opacity=".522"/><stop offset="1" stop-color="#9bbcde" stop-opacity="0"/></radialGradient><radialGradient id="g" cx="27.875" cy="25.581" gradientTransform="matrix(.73223 0 0 .73201 -16.707 1.423)" gradientUnits="userSpaceOnUse" r="4.448" spreadMethod="pad"><stop offset="0" stop-color="#523e97"/><stop offset="1" stop-color="#230581"/></radialGradient><radialGradient id="f" cx="17.198" cy="26.27" gradientTransform="matrix(-3.2897 0 0 4.93306 59.844 -92.694)" gradientUnits="userSpaceOnUse" r="2.283" xlink:href="#a"/><linearGradient id="a"><stop offset="0" stop-color="#ffdf87"/><stop offset=".538" stop-color="#ffdf87"/><stop offset=".769" stop-color="#ced0d7"/><stop offset="1" stop-color="#a1a6b4"/></linearGradient><radialGradient id="e" cx="17.198" cy="26.27" gradientTransform="matrix(3.2897 0 0 4.93306 -52.584 -92.694)" gradientUnits="userSpaceOnUse" r="2.283" xlink:href="#a"/><radialGradient id="d" cx="84.667" cy="235.322" gradientTransform="matrix(1.00001 0 0 4.3265 -80.964 -997.97)" gradientUnits="userSpaceOnUse" r="5.436"><stop offset="0" stop-color="#f7f7f7"/><stop offset="1" stop-color="#8d93a4"/></radialGradient><radialGradient id="c" cx="100.542" cy="288.829" gradientTransform="matrix(1.00001 0 0 1.99334 -96.839 -539.12)" gradientUnits="userSpaceOnUse" r="15.875"><stop offset="0" stop-color="#9c712a"/><stop offset=".5" stop-color="#37009b"/><stop offset="1" stop-color="#59089f"/></radialGradient><linearGradient id="b" gradientTransform="matrix(1.09156 0 0 1.09124 -14.799 4.994)" gradientUnits="userSpaceOnUse" x1="17.19" x2="17.236" y1="2.749" y2="31.762"><stop offset="0" stop-color="#5a089f"/><stop offset="1" stop-color="#35009b"/></linearGradient><g transform="matrix(.9 0 0 .9 13.6 -4.323)"><rect fill="url(#b)" height="31.741" rx="7.039" width="31.75" x="-12.171" y="7.743"/><rect fill="url(#c)" height="31.75" ry="6.615" width="31.75" x="-12.171" y="7.743"/><path d="M3.704 9.718s-5.436 4.528-5.436 11.774c0 4.709 2.99 7.698 4.53 9.056.627.042 1.204.042 1.812 0 1.54-1.358 4.53-4.347 4.53-9.057 0-7.245-5.436-11.773-5.436-11.773z" fill="url(#d)"/><path d="M3.704 39.493s-1.186-1.95-1.186-5.07c0-2.029.813-3.88.813-3.88h.746s.813 1.851.813 3.88c0 3.12-1.186 5.07-1.186 5.07z" fill="#ffdf87"/><path d="M-6.405 11.776l.29 2.31 1.732.288-1.733.289-.289 2.31-.289-2.31-1.732-.289 1.732-.288zM15.978 28.81l.145 1.444 1.155.145-1.155.144-.145 1.444-.144-1.444-1.155-.144 1.155-.145zm-20.794-5.197l.144 1.444 1.155.144-1.155.145-.144 1.443-.145-1.443-1.155-.145 1.155-.144z" fill="#fff"/><path d="M6.626 27.347c-.034 4.062 1.988 10.125 4.01 10.125 2.02 0 .577-6.64-1.445-8.95-1.753-2.003-1.013-2.887-2.026-2.887-.29 0-.53.557-.539 1.712z" fill="url(#e)"/><path d="M.634 27.347c.034 4.062-1.988 10.125-4.01 10.125-2.021 0-.577-6.64 1.445-8.95 1.753-2.003 1.013-2.887 2.026-2.887.289 0 .529.557.539 1.712z" fill="url(#f)"/><ellipse cx="3.704" cy="20.149" fill="none" rx="3.955" ry="3.954" stroke="#000" stroke-opacity=".133" stroke-width=".156"/><ellipse cx="3.704" cy="20.149" fill="url(#g)" rx="3.064" ry="3.063" stroke="#0d0e12" stroke-linecap="round" stroke-linejoin="round" stroke-width=".387"/><circle cx=".761" cy="-20.472" fill="url(#h)" transform="rotate(167.461) skewX(.007)" r="2.575"/><path d="M3.614 19.006l-.112-.878c-.638.078-1.191.344-1.58.968l.745.454a1.21 1.21 0 01.947-.545zM2.46 20.11c.02-.137.055-.278.107-.423l-.74-.417c-.12.2-.219.42-.23.71z" fill="#d5cef6" fill-opacity=".369"/><path d="M12.513 17.262l.144 1.443 1.155.145-1.155.144-.144 1.444-.145-1.444-1.155-.144 1.155-.145z" fill="#fff"/><path d="M.816 13.22c2.021.866 3.754.866 5.776 0" fill="none" stroke="#000" stroke-opacity=".133" stroke-width=".132"/><path d="M2.074 29.88l.543 1.676H4.79l.544-1.676h-1.63z" fill="url(#i)"/></g></svg>