<svg height="32" viewBox="0.1.467 8.467" width="32" xmlns="http://www.w3.org/2000/svg"><radialGradient id="c" cx="4.233" cy="3.439" fx="4.03" fy="3.248" gradientUnits="userSpaceOnUse" r=".746" spreadMethod="pad"><stop offset="0" stop-color="#a798ff"/><stop offset="1" stop-color="#803bfc"/></radialGradient><linearGradient id="b" gradientUnits="userSpaceOnUse" x1="2.988" x2="5.478" y1="3.439" y2="3.439"><stop offset="0" stop-color="#2c2c2c"/><stop offset=".25" stop-color="#535353"/><stop offset=".5" stop-color="#6b6b6b"/><stop offset=".75" stop-color="#535353"/><stop offset="1" stop-color="#2c2c2c"/></linearGradient><radialGradient id="d" cx="17.198" cy="26.27" gradientTransform="matrix(.75344 0 0 1.13015 -8.658 -22.414)" gradientUnits="userSpaceOnUse" r="2.283"><stop offset="0" stop-color="#ffd767"/><stop offset=".538" stop-color="#e0b832"/><stop offset=".769" stop-color="#6e6c6a"/><stop offset="1" stop-color="#444"/></radialGradient><radialGradient id="e" cx="17.198" cy="26.27" gradientTransform="matrix(-.75344 0 0 1.13015 17.091 -22.414)" gradientUnits="userSpaceOnUse" r="2.283"><stop offset="0" stop-color="#ffc108"/><stop offset=".538" stop-color="#a7872a"/><stop offset=".769" stop-color="#6e6c6a"/><stop offset="1" stop-color="#444"/></radialGradient><linearGradient id="a" gradientUnits="userSpaceOnUse" x1="4.293" x2="4.305" y1=".654" y2="7.907"><stop offset="0" stop-color="#728de5"/><stop offset="1" stop-color="#bd98eb"/></linearGradient><rect fill="url(#a)" height="7.272" rx="1.612" width="7.272" x=".598" y=".596"/><path d="M4.026 5.821a5.14 5.14 0 00-.851 2.05h2.117a5.045 5.045 0 00-.86-2.051z" fill="#ffc012" fill-opacity=".737"/><path d="M4.104 5.821a7.103 7.103 0 00-.532 2.05h1.323a6.952 6.952 0 00-.538-2.051z" fill="#ffd768" fill-opacity=".717"/><path d="M4.233 7.87s-.271-.447-.271-1.161c0-.465.186-.89.186-.89h.17s.187.425.187.89c0 .714-.272 1.161-.272 1.161z" fill="#fff3d2" fill-opacity=".733"/><path d="M4.233 1.049S2.988 2.086 2.988 3.746c0 1.08.685 1.764 1.038 2.075.143.01.276.01.415 0 .353-.311 1.037-.996 1.037-2.075 0-1.66-1.245-2.697-1.245-2.697z" fill="url(#b)" stroke="#333" stroke-opacity=".549" stroke-width=".066"/><circle cx="4.233" cy="3.439" fill="url(#c)" r=".702" stroke="#0d0e12" stroke-linecap="round" stroke-linejoin="round" stroke-width=".089"/><g fill="#fff"><path d="M1.918 1.52l.066.53.397.066-.397.066-.066.529-.066-.53-.397-.065.397-.067zM7.045 5.423l.033.33.264.034-.264.033-.033.33-.033-.33-.265-.033.265-.033zM6.25 2.777l.034.33.265.034-.265.033-.033.33-.033-.33-.265-.033.265-.033zM2.282 4.232l.033.331.265.033-.265.033-.033.33-.033-.33-.265-.033.265-.033z"/></g><path d="M4.903 5.088c-.008.93.455 2.32.918 2.32s.132-1.522-.33-2.051c-.402-.46-.233-.662-.465-.662-.066 0-.121.128-.123.393z" fill="url(#d)" stroke="#333" stroke-opacity=".549" stroke-width=".066"/><path d="M3.53 5.088c.008.93-.455 2.32-.918 2.32s-.132-1.522.33-2.051c.402-.46.233-.662.465-.662.066 0 .121.128.123.393z" fill="url(#e)" stroke="#333" stroke-opacity=".549" stroke-width=".066"/></svg>